<?xml version="1.0" encoding="utf-8"?>
<svg version="1.1" xmlns:xlink="http://www.w3.org/1999/xlink" width="27px" height="27px" xmlns="http://www.w3.org/2000/svg">
  <g transform="matrix(1 0 0 1 -26 -89 )">
    <path d="M 20.0830078125 11.4169921875  C 20.1943359375 11.5283203125  20.25 11.66015625  20.25 11.8125  L 20.25 15.1875  C 20.25 15.33984375  20.1943359375 15.4716796875  20.0830078125 15.5830078125  C 19.9716796875 15.6943359375  19.83984375 15.75  19.6875 15.75  L 13.5 15.75  L 13.5 19.125  C 13.5 19.2890625  13.447265625 19.423828125  13.341796875 19.529296875  C 13.236328125 19.634765625  13.1015625 19.6875  12.9375 19.6875  C 12.796875 19.6875  12.65625 19.62890625  12.515625 19.51171875  L 6.908203125 13.904296875  C 6.802734375 13.798828125  6.75 13.6640625  6.75 13.5  C 6.75 13.3359375  6.802734375 13.201171875  6.908203125 13.095703125  L 12.533203125 7.470703125  C 12.638671875 7.365234375  12.7734375 7.3125  12.9375 7.3125  C 13.08984375 7.3125  13.2216796875 7.3681640625  13.3330078125 7.4794921875  C 13.4443359375 7.5908203125  13.5 7.72265625  13.5 7.875  L 13.5 11.25  L 19.6875 11.25  C 19.83984375 11.25  19.9716796875 11.3056640625  20.0830078125 11.4169921875  Z M 21.779296875 18.298828125  C 22.634765625 16.833984375  23.0625 15.234375  23.0625 13.5  C 23.0625 11.765625  22.634765625 10.166015625  21.779296875 8.701171875  C 20.923828125 7.236328125  19.763671875 6.076171875  18.298828125 5.220703125  C 16.833984375 4.365234375  15.234375 3.9375  13.5 3.9375  C 11.765625 3.9375  10.166015625 4.365234375  8.701171875 5.220703125  C 7.236328125 6.076171875  6.076171875 7.236328125  5.220703125 8.701171875  C 4.365234375 10.166015625  3.9375 11.765625  3.9375 13.5  C 3.9375 15.234375  4.365234375 16.833984375  5.220703125 18.298828125  C 6.076171875 19.763671875  7.236328125 20.923828125  8.701171875 21.779296875  C 10.166015625 22.634765625  11.765625 23.0625  13.5 23.0625  C 15.234375 23.0625  16.833984375 22.634765625  18.298828125 21.779296875  C 19.763671875 20.923828125  20.923828125 19.763671875  21.779296875 18.298828125  Z M 25.189453125 6.7236328125  C 26.396484375 8.7919921875  27 11.05078125  27 13.5  C 27 15.94921875  26.396484375 18.2080078125  25.189453125 20.2763671875  C 23.982421875 22.3447265625  22.3447265625 23.982421875  20.2763671875 25.189453125  C 18.2080078125 26.396484375  15.94921875 27  13.5 27  C 11.05078125 27  8.7919921875 26.396484375  6.7236328125 25.189453125  C 4.6552734375 23.982421875  3.017578125 22.3447265625  1.810546875 20.2763671875  C 0.603515625 18.2080078125  0 15.94921875  0 13.5  C 0 11.05078125  0.603515625 8.7919921875  1.810546875 6.7236328125  C 3.017578125 4.6552734375  4.6552734375 3.017578125  6.7236328125 1.810546875  C 8.7919921875 0.603515624999998  11.05078125 0  13.5 0  C 15.94921875 0  18.2080078125 0.603515624999998  20.2763671875 1.810546875  C 22.3447265625 3.017578125  23.982421875 4.6552734375  25.189453125 6.7236328125  Z " fill-rule="nonzero" fill="#000000" stroke="none" transform="matrix(1 0 0 1 26 89 )" />
  </g>
</svg>