<?xml version="1.0" encoding="utf-8"?>
<svg version="1.1" xmlns:xlink="http://www.w3.org/1999/xlink" width="19px" height="18px" xmlns="http://www.w3.org/2000/svg">
  <g transform="matrix(1 0 0 1 -775 -119 )">
    <path d="M 4.38461538461539 13.5  L 4.38461538461539 16.5  L 14.6153846153846 16.5  L 14.6153846153846 13.5  L 4.38461538461539 13.5  Z M 4.38461538461539 1.5  L 4.38461538461539 9  L 14.6153846153846 9  L 14.6153846153846 4.5  L 12.7884615384615 4.5  C 12.4839743589744 4.5  12.2251602564103 4.390625  12.0120192307692 4.171875  C 11.7988782051282 3.953125  11.6923076923077 3.6875  11.6923076923077 3.375  L 11.6923076923077 1.5  L 4.38461538461539 1.5  Z M 17.3215144230769 10.27734375  C 17.4661458333333 10.12890625  17.5384615384615 9.953125  17.5384615384615 9.75  C 17.5384615384615 9.546875  17.4661458333333 9.37109375  17.3215144230769 9.22265625  C 17.1768830128205 9.07421875  17.005608974359 9  16.8076923076923 9  C 16.6097756410256 9  16.4385016025641 9.07421875  16.2938701923077 9.22265625  C 16.1492387820513 9.37109375  16.0769230769231 9.546875  16.0769230769231 9.75  C 16.0769230769231 9.953125  16.1492387820513 10.12890625  16.2938701923077 10.27734375  C 16.4385016025641 10.42578125  16.6097756410256 10.5  16.8076923076923 10.5  C 17.005608974359 10.5  17.1768830128205 10.42578125  17.3215144230769 10.27734375  Z M 18.3548677884615 8.162109375  C 18.7849559294872 8.603515625  19 9.1328125  19 9.75  L 19 14.625  C 19 14.7265625  18.9638421474359 14.814453125  18.8915264423077 14.888671875  C 18.8192107371795 14.962890625  18.7335737179487 15  18.6346153846154 15  L 16.0769230769231 15  L 16.0769230769231 16.875  C 16.0769230769231 17.1875  15.9703525641026 17.453125  15.7572115384615 17.671875  C 15.5440705128205 17.890625  15.2852564102564 18  14.9807692307692 18  L 4.01923076923077 18  C 3.71474358974359 18  3.45592948717949 17.890625  3.24278846153846 17.671875  C 3.02964743589744 17.453125  2.92307692307692 17.1875  2.92307692307692 16.875  L 2.92307692307692 15  L 0.365384615384615 15  C 0.266426282051282 15  0.180789262820513 14.962890625  0.108473557692308 14.888671875  C 0.0361578525641026 14.814453125  0 14.7265625  0 14.625  L 0 9.75  C 0 9.1328125  0.215044070512821 8.603515625  0.645132211538461 8.162109375  C 1.0752203525641 7.720703125  1.59094551282051 7.5  2.19230769230769 7.5  L 2.92307692307692 7.5  L 2.92307692307692 1.125  C 2.92307692307692 0.812499999999999  3.02964743589744 0.546874999999998  3.24278846153846 0.328124999999999  C 3.45592948717949 0.109374999999999  3.71474358974359 0  4.01923076923077 0  L 11.6923076923077 0  C 11.9967948717949 0  12.3317307692308 0.0781249999999982  12.6971153846154 0.234375000000001  C 13.0625 0.390624999999999  13.3517628205128 0.578124999999998  13.5649038461538 0.796875000000001  L 15.3004807692308 2.578125  C 15.5136217948718 2.796875  15.6963141025641 3.09375  15.8485576923077 3.46875  C 16.0008012820513 3.84375  16.0769230769231 4.1875  16.0769230769231 4.5  L 16.0769230769231 7.5  L 16.8076923076923 7.5  C 17.4090544871795 7.5  17.9247796474359 7.720703125  18.3548677884615 8.162109375  Z " fill-rule="nonzero" fill="#000000" stroke="none" transform="matrix(1 0 0 1 775 119 )" />
  </g>
</svg>