<?xml version="1.0" encoding="utf-8"?>
<svg version="1.1" xmlns:xlink="http://www.w3.org/1999/xlink" width="17px" height="17px" xmlns="http://www.w3.org/2000/svg">
  <g transform="matrix(1 0 0 1 -45 -340 )">
    <path d="M 53.5 341  C 57.7 341  61 344.3  61 348.5  C 61 352.7  57.7 356  53.5 356  C 49.3 356  46 352.7  46 348.5  C 46 344.3  49.3 341  53.5 341  Z " fill-rule="nonzero" fill="#ffffff" stroke="none" />
    <path d="M 53.5 341  C 57.7 341  61 344.3  61 348.5  C 61 352.7  57.7 356  53.5 356  C 49.3 356  46 352.7  46 348.5  C 46 344.3  49.3 341  53.5 341  Z " stroke-width="2" stroke="#333333" fill="none" />
  </g>
</svg>