<?xml version="1.0" encoding="utf-8"?>
<svg version="1.1" xmlns:xlink="http://www.w3.org/1999/xlink" width="94px" height="72px" xmlns="http://www.w3.org/2000/svg">
  <g transform="matrix(1 0 0 1 -168 -206 )">
    <path d="M 92.301935483871 9.93939393939394  C 93.4339784946237 11.0707070707071  94 12.4444444444444  94 14.0606060606061  C 94 15.6767676767677  93.4339784946237 17.050505050505  92.301935483871 18.1818181818182  L 48.3948387096774 62.0606060606061  L 40.1470967741936 70.3030303030303  C 39.0150537634409 71.4343434343434  37.6404301075269 72  36.0232258064516 72  C 34.4060215053763 72  33.0313978494624 71.4343434343434  31.8993548387097 70.3030303030303  L 23.6516129032258 62.0606060606061  L 1.69806451612903 40.1212121212121  C 0.566021505376345 38.989898989899  0 37.6161616161616  0 36  C 0 34.3838383838384  0.566021505376345 33.010101010101  1.69806451612903 31.8787878787879  L 9.9458064516129 23.6363636363636  C 11.0778494623656 22.5050505050505  12.4524731182796 21.9393939393939  14.0696774193548 21.9393939393939  C 15.6868817204301 21.9393939393939  17.0615053763441 22.5050505050505  18.1935483870968 23.6363636363636  L 36.0232258064516 41.5151515151515  L 75.8064516129032 1.6969696969697  C 76.9384946236559 0.565656565656563  78.3131182795699 0  79.9303225806452 0  C 81.5475268817204 0  82.9221505376344 0.565656565656563  84.0541935483871 1.6969696969697  L 92.301935483871 9.93939393939394  Z " fill-rule="nonzero" fill="#000000" stroke="none" transform="matrix(1 0 0 1 168 206 )" />
  </g>
</svg>